<svg width="47" height="50" viewBox="0 0 47 50" fill="none" xmlns="http://www.w3.org/2000/svg">
<rect width="47" height="50" fill="black"/>
<path d="M14.3008 38V9.5625H23.5977C26.6836 9.5625 29.0013 10.2005 30.5508 11.4766C32.1133 12.7526 32.8945 14.6406 32.8945 17.1406C32.8945 18.4688 32.5169 19.6471 31.7617 20.6758C31.0065 21.6914 29.9779 22.4792 28.6758 23.0391C30.2122 23.4688 31.4232 24.2891 32.3086 25.5C33.207 26.6979 33.6562 28.1302 33.6562 29.7969C33.6562 32.349 32.8294 34.3542 31.1758 35.8125C29.5221 37.2708 27.1849 38 24.1641 38H14.3008ZM18.0508 24.6992V34.9336H24.2422C25.987 34.9336 27.3607 34.4844 28.3633 33.5859C29.3789 32.6745 29.8867 31.4245 29.8867 29.8359C29.8867 26.4115 28.0247 24.6992 24.3008 24.6992H18.0508ZM18.0508 21.6914H23.7148C25.3555 21.6914 26.6641 21.2812 27.6406 20.4609C28.6302 19.6406 29.125 18.5273 29.125 17.1211C29.125 15.5586 28.6693 14.4258 27.7578 13.7227C26.8464 13.0065 25.4596 12.6484 23.5977 12.6484H18.0508V21.6914Z" fill="white"/>
</svg>
